<?xml version="1.0" encoding="UTF-8" standalone="no"?>
<svg width="30px" height="34px" viewBox="0 0 30 34" version="1.1" xmlns="http://www.w3.org/2000/svg" xmlns:xlink="http://www.w3.org/1999/xlink">
    <!-- Generator: Sketch 39.1 (31720) - http://www.bohemiancoding.com/sketch -->
    <title>Page 1</title>
    <desc>Created with Sketch.</desc>
    <defs></defs>
    <g id="Page-1" stroke="none" stroke-width="1" fill="none" fill-rule="evenodd">
        <g id="RBW" transform="translate(-43.000000, -43.000000)">
            <g id="Page-1" transform="translate(43.000000, 44.000000)">
                <path d="M5.89798177,18.8425313 C5.89798177,18.8425313 3.16742737,18.2315177 4.64910009,15.540495 C6.13077281,12.8494724 14.6700209,15.540495 14.6700209,15.540495 L12.9833666,13.8906995 L9.1539027,0.953066667 C9.09336216,0.4464 9.48611892,-7.61904762e-05 9.99314595,-7.61904762e-05 L18.6950919,-7.61904762e-05 C24.8747676,-7.61904762e-05 27.8238486,4.05401905 27.8238486,8.01287619 C27.8238486,11.382019 26.0522811,13.8079238 23.6768216,14.8372571 C23.3536865,14.9766857 23.3665514,15.4178286 23.6964973,15.5404952 C26.4253622,16.5545905 28.4322811,19.4414476 28.4322811,22.9058286 C28.4322811,27.478019 25.3893622,31.4368762 19.2566054,31.4368762 L10.2277405,31.4368762 C9.67076757,31.4368762 9.16222703,31.1206857 8.91174054,30.6201143 L5.89798177,18.8425313 Z" id="Fill-1" stroke="#00AAFF" stroke-width="1.5"></path>
                <path d="M17.3744052,16.3536545 L9.41237375,0.409234787 C9.3381429,0.262098646 9.11699684,0.329827981 9.13632779,0.493312582 L10.5103717,11.9769381 C10.5675913,12.4541575 10.1979835,12.8745464 9.72012247,12.8745464 L2.33724622,12.8745464 C1.21063848,12.8745464 0.479155348,14.069541 0.984852988,15.0831455 L8.94765772,31.0275652 C9.02111533,31.1747014 9.24226139,31.106972 9.22293044,30.9434874 L7.84888655,19.4598619 C7.79166694,18.9826425 8.16204793,18.5622536 8.63990901,18.5622536 L16.022012,18.5622536 C17.1486198,18.5622536 17.8808761,17.367259 17.3744052,16.3536545" id="Fill-4" stroke="#FFFFFF" fill="#FFFFFF"></path>
            </g>
        </g>
    </g>
</svg>