<?xml version="1.0" encoding="UTF-8"?>
<svg width="20px" height="23px" viewBox="0 0 20 23" version="1.1" xmlns="http://www.w3.org/2000/svg" xmlns:xlink="http://www.w3.org/1999/xlink">
    <!-- Generator: Sketch 49.1 (51147) - http://www.bohemiancoding.com/sketch -->
    <title>LOGO</title>
    <desc>Created with Sketch.</desc>
    <defs></defs>
    <g id="Page-1" stroke="none" stroke-width="1" fill="none" fill-rule="evenodd">
        <g id="Content" transform="translate(-45.000000, -54.000000)">
            <g id="Nav-Bar-Black" transform="translate(40.000000, 50.000000)">
                <g id="LOGO">
                    <rect id="Rectangle" x="0" y="0" width="30" height="30"></rect>
                    <path d="M23.2671211,22.0805549 C23.0369805,22.6888202 22.697274,23.2236823 22.2574219,23.6702732 C21.7934236,24.1413934 21.2221295,24.5089772 20.5594146,24.7628242 C19.8336671,25.0408316 18.9996307,25.1817931 18.0804726,25.1817931 L12.3264879,25.1817931 C12.1149606,25.1817931 11.9367583,25.0237789 11.911463,24.8137554 L11.129748,18.3245748 C11.099771,18.075679 11.2940754,17.8565616 11.544773,17.8565616 L15.787039,17.8565616 C16.3813586,17.8565616 16.9223779,17.5545357 17.2342637,17.0486291 C17.5461496,16.5427226 17.5729771,15.9237035 17.3060071,15.3927145 L12.5815267,5.99611766 C12.4417569,5.71812443 12.6438358,5.39032083 12.9550123,5.39032083 L17.6994821,5.39032083 C19.445952,5.39032083 20.8908926,5.90811603 21.878063,6.88772473 C22.3087077,7.31509233 22.6420017,7.81844521 22.8686665,8.38382343 C23.0864362,8.92698489 23.196839,9.50242166 23.196839,10.094145 C23.196839,11.1848801 22.8820307,12.1601334 22.2864484,12.9144676 C22.0125978,13.2613243 21.6851489,13.5549231 21.3132097,13.7871067 C20.9465196,14.0160131 20.5453128,14.1799149 20.1208251,14.2742439 C19.7944544,14.3467676 19.5659311,14.6413312 19.5768266,14.9754905 C19.5876938,15.3096215 19.8349014,15.5887071 20.165287,15.6398369 C21.094603,15.78365 21.9553534,16.3032753 22.5889425,17.1029935 C23.2471885,17.9337953 23.6096792,19.0083998 23.6096792,20.1288282 C23.6096792,20.8231232 23.4944244,21.4797802 23.2671211,22.0805549 M23.6786987,16.2396043 C23.2434006,15.6902006 22.7243853,15.2384598 22.1506084,14.9017042 C22.6169901,14.5954222 23.0293337,14.217184 23.3776658,13.7760125 C24.1689144,12.7738324 24.5871598,11.5006532 24.5871598,10.094145 C24.5871598,9.32437547 24.4431623,8.57487905 24.1591538,7.86646803 C23.8614833,7.12396577 23.4234897,6.46262704 22.8573737,5.90085231 C21.6042265,4.65729545 19.8206577,4 17.6994821,4 L11.7961515,4 C11.4334906,4 11.0874993,4.15561662 10.8468887,4.42695618 C10.7040403,4.58804896 10.6061362,4.78113331 10.5592199,4.98680149 C10.5239512,5.09418249 10.5112397,5.21051546 10.5255401,5.32920346 L11.3590375,12.247525 C11.3890287,12.4964208 11.19471,12.7155524 10.9440125,12.7155524 L6.70174643,12.7155524 C6.10741265,12.7155524 5.56640761,13.0175783 5.25450757,13.5234849 C4.94262173,14.0293914 4.9158084,14.6484105 5.18277837,15.1793995 L10.4416385,25.6389959 L10.4416385,25.6390243 C10.4417095,25.639152 10.4417804,25.6392796 10.4418371,25.6393931 L10.4690335,25.6934738 C10.4898741,25.7349422 10.5139636,25.7738145 10.5407627,25.8100195 C10.6762339,26.0156593 10.8550603,26.189946 11.0661337,26.3200829 C11.3335719,26.4849636 11.6409888,26.572114 11.9551446,26.572114 L18.0804726,26.572114 C20.2199635,26.572114 22.0068521,25.9060226 23.2479688,24.645867 C23.8244696,24.0605278 24.2684217,23.3629698 24.5674825,22.5725582 C24.8544845,21.8140105 25,20.9918202 25,20.1288282 C25,18.6962728 24.5307525,17.31506 23.6786987,16.2396043" id="Fill-1" fill="#000000"></path>
                </g>
            </g>
        </g>
    </g>
</svg>